<svg xmlns="http://www.w3.org/2000/svg" fill="none" viewBox="-1 -1 28 28" height="28" width="28" id="Graduation-Cap--Streamline-Flex.svg"><desc>Graduation Cap Streamline Icon: https://streamlinehq.com</desc><g id="graduation-cap--graduation-cap-education"><path id="Vector" fill="#ffffff" d="M3.0337542857142856 23.045657142857145c1.03246 0 1.8694185714285716 -0.8370142857142857 1.8694185714285716 -1.8694S4.066214285714286 19.306857142857144 3.0337542857142856 19.306857142857144c-1.0324414285714287 0 -1.8694130000000002 0.8370142857142857 -1.8694130000000002 1.8694s0.8369715714285715 1.8694 1.8694130000000002 1.8694Z" stroke-width="2"></path><path id="Vector_2" stroke="#1f1d0d" stroke-linecap="round" stroke-linejoin="round" d="M3.0337542857142856 23.045657142857145c1.03246 0 1.8694185714285716 -0.8370142857142857 1.8694185714285716 -1.8694S4.066214285714286 19.306857142857144 3.0337542857142856 19.306857142857144c-1.0324414285714287 0 -1.8694130000000002 0.8370142857142857 -1.8694130000000002 1.8694s0.8369715714285715 1.8694 1.8694130000000002 1.8694Z" stroke-width="2"></path><path id="Ellipse 347" stroke="#1f1d0d" stroke-linecap="round" stroke-linejoin="round" d="M3.034181428571429 19.307042857142857V10.099124285714286" stroke-width="2"></path><path id="Intersect" fill="#ffffff" d="M6.821657142857143 16.44251142857143c0.17533285714285715 1.7852528571428572 1.62188 3.2324314285714286 3.4063157142857143 3.4157314285714286 0.9060628571428572 0.09304285714285715 1.83118 0.16435714285714284 2.7712285714285714 0.16435714285714284s1.8651657142857145 -0.0713142857142857 2.7712285714285714 -0.16435714285714284c1.7844357142857143 -0.1833 3.230927142857143 -1.6304785714285714 3.4062414285714286 -3.4157314285714286 0.0884 -0.8984114285714286 0.1548857142857143 -1.8156171428571428 0.1548857142857143 -2.7475685714285714 0 -0.40417 -0.012442857142857144 -0.8055542857142857 -0.033985714285714286 -1.2038557142857143 -0.14411428571428572 -2.6868957142857144 -2.38394 -4.933165714285715 -5.070315714285715 -5.086788571428571 -0.4062314285714286 -0.023232857142857145 -0.8157128571428572 -0.03693857142857143 -1.2280542857142858 -0.03693857142857143 -0.4123414285714286 0 -0.8218042857142858 0.013705714285714286 -1.2280542857142858 0.03693857142857143 -2.686375714285714 0.15362285714285714 -4.926182857142857 2.399892857142857 -5.070390000000001 5.086788571428571 -0.021375714285714286 0.3983014285714286 -0.03391142857142857 0.7996857142857143 -0.03391142857142857 1.2038557142857143 0 0.9319514285714287 0.06657857142857143 1.849157142857143 0.15481142857142857 2.7475685714285714Z" stroke-width="2"></path><path id="Intersect_2" stroke="#1f1d0d" stroke-linecap="round" stroke-linejoin="round" d="M19.30407142857143 12.615051428571428c0.01745714285714286 0.3575371428571429 0.027485714285714287 0.7175257142857143 0.027485714285714287 1.0797428571428573 0 0.9035 -0.06258571428571429 1.7931457142857143 -0.1467142857142857 2.6652600000000004 -0.17717142857142856 1.8333342857142856 -1.6302928571428572 3.3148885714285714 -3.4151000000000002 3.4981885714285714 -0.9058400000000001 0.09304285714285715 -1.8307157142857144 0.16417142857142858 -2.7705414285714287 0.16417142857142858 -0.9398071428571428 0 -1.8647014285714287 -0.07112857142857143 -2.7705228571428573 -0.16417142857142858 -1.7848257142857145 -0.1833 -3.2380028571428574 -1.6648542857142858 -3.415044285714286 -3.4981885714285714 -0.08420285714285715 -0.8721142857142857 -0.14678857142857143 -1.7617600000000002 -0.14678857142857143 -2.6652600000000004 0 -0.36221714285714285 0.010065714285714287 -0.7222057142857143 0.02754142857142857 -1.0797428571428573" stroke-width="2"></path><path id="Intersect_3" fill="#ffffff" d="M1.8724457142857145 7.854878571428571c-0.9438037142857144 0.5922614285714286 -0.9432484285714285 1.4413099999999999 -0.003677142857142857 2.0352614285714283 1.3007242857142858 0.8222685714285715 2.6455 1.676127142857143 4.2081 2.458745714285714 1.5626000000000002 0.7826000000000001 3.2674942857142857 1.4561114285714285 4.909282857142857 2.1075785714285713 1.185897142857143 0.47056285714285717 2.8811714285714283 0.4708414285714285 4.063707142857143 -0.0018571428571428573 1.629197142857143 -0.6512442857142857 3.3165785714285714 -1.3266685714285715 4.872084285714286 -2.1057214285714285 1.5555428571428571 -0.7790714285714285 2.9042000000000003 -1.624164285714286 4.204385714285714 -2.440137142857143 0.9438 -0.5922428571428572 0.9432428571428572 -1.4413099999999999 0.0037142857142857147 -2.0352428571428574 -1.3007428571428572 -0.8222685714285715 -2.6455 -1.6761457142857143 -4.2081 -2.458745714285714 -1.5625814285714286 -0.7826185714285715 -3.2674757142857143 -1.4561300000000001 -4.909245714285714 -2.1075785714285713 -1.1859157142857142 -0.47056285714285717 -2.88119 -0.4708414285714285 -4.063725714285714 0.0018385714285714286 -1.6291785714285714 0.6512442857142857 -3.3165785714285714 1.3266685714285715 -4.872102857142857 2.1057400000000004 -1.5555242857142857 0.7790528571428571 -2.9041071428571428 1.624164285714286 -4.204422857142857 2.440118571428571Z" stroke-width="2"></path><path id="Intersect_4" stroke="#1f1d0d" stroke-linecap="round" stroke-linejoin="round" d="M1.8724457142857145 7.854878571428571c-0.9438037142857144 0.5922614285714286 -0.9432484285714285 1.4413099999999999 -0.003677142857142857 2.0352614285714283 1.3007242857142858 0.8222685714285715 2.6455 1.676127142857143 4.2081 2.458745714285714 1.5626000000000002 0.7826000000000001 3.2674942857142857 1.4561114285714285 4.909282857142857 2.1075785714285713 1.185897142857143 0.47056285714285717 2.8811714285714283 0.4708414285714285 4.063707142857143 -0.0018571428571428573 1.629197142857143 -0.6512442857142857 3.3165785714285714 -1.3266685714285715 4.872084285714286 -2.1057214285714285 1.5555428571428571 -0.7790714285714285 2.9042000000000003 -1.624164285714286 4.204385714285714 -2.440137142857143 0.9438 -0.5922428571428572 0.9432428571428572 -1.4413099999999999 0.0037142857142857147 -2.0352428571428574 -1.3007428571428572 -0.8222685714285715 -2.6455 -1.6761457142857143 -4.2081 -2.458745714285714 -1.5625814285714286 -0.7826185714285715 -3.2674757142857143 -1.4561300000000001 -4.909245714285714 -2.1075785714285713 -1.1859157142857142 -0.47056285714285717 -2.88119 -0.4708414285714285 -4.063725714285714 0.0018385714285714286 -1.6291785714285714 0.6512442857142857 -3.3165785714285714 1.3266685714285715 -4.872102857142857 2.1057400000000004 -1.5555242857142857 0.7790528571428571 -2.9041071428571428 1.624164285714286 -4.204422857142857 2.440118571428571Z" stroke-width="2"></path></g></svg>