<svg xmlns="http://www.w3.org/2000/svg" fill="none" viewBox="-1 -1 28 28" height="28" width="28" id="Presentation--Streamline-Flex.svg"><desc>Presentation Streamline Icon: https://streamlinehq.com</desc><g id="presentation"><path id="Union" fill="#ffd32b" d="M13 1.2962857142857143c2.3864285714285716 0 4.988285714285714 0.17642857142857143 7.3580000000000005 0.40114285714285713 1.6342857142857143 0.15414285714285716 2.915714285714286 1.235 3.0921428571428575 2.6 0 0 0.403 1.56 0.403 4.6038571428571435 0 3.042 -0.403 4.602 -0.403 4.602 -0.1782857142857143 1.365 -1.4597142857142857 2.4458571428571427 -3.0921428571428575 2.6 -2.3715714285714284 0.22285714285714286 -4.971571428571429 0.40114285714285713 -7.356142857142857 0.40114285714285713 -2.3864285714285716 0 -4.988285714285714 -0.17642857142857143 -7.361714285714286 -0.40114285714285713 -1.6324285714285716 -0.15414285714285716 -2.9138571428571427 -1.235 -3.0921428571428575 -2.6 0 0 -0.40114285714285713 -1.56 -0.40114285714285713 -4.6038571428571435 0 -3.0401428571428575 0.40114285714285713 -4.602 0.40114285714285713 -4.602 0.1782857142857143 -1.365 1.4597142857142857 -2.4458571428571427 3.0921428571428575 -2.6C8.01357142857143 1.4745714285714286 10.615428571428572 1.2962857142857143 13.001857142857144 1.2962857142857143Z" stroke-width="2"></path><path id="Vector" fill="#ffffff" d="M13 14.76057142857143c-1.6212857142857144 0 -3.069857142857143 0.7521428571428572 -4.03 1.9314285714285715 -0.7837142857142857 0.9601428571428572 -0.9081428571428571 2.2601428571428572 -0.9081428571428571 3.4988571428571427H17.94c0 -1.2387142857142859 -0.12442857142857144 -2.5387142857142857 -0.9081428571428571 -3.500714285714286A5.187 5.187 0 0 0 13 14.76057142857143Z" stroke-width="2"></path><path id="rectangle 631" fill="#ffd32b" d="m19.470285714285716 24.703714285714288 0 -4.512857142857143 -12.94057142857143 0 0 4.512857142857143 12.94057142857143 0Z" stroke-width="2"></path><path id="vector" stroke="#1f1d0d" stroke-linecap="round" stroke-linejoin="round" d="m21.26985714285714 20.190857142857144 -16.539714285714286 0" stroke-width="2"></path><path id="rectangle 630" stroke="#1f1d0d" stroke-linecap="round" stroke-linejoin="round" d="m19.470285714285716 20.190857142857144 0 4.512857142857143m-12.94057142857143 0 0 -4.512857142857143" stroke-width="2"></path><path id="Union_2" stroke="#1f1d0d" stroke-linecap="round" stroke-linejoin="round" d="M20.358 16.10142857142857c1.6324285714285716 -0.1522857142857143 2.915714285714286 -1.2331428571428573 3.0921428571428575 -2.6 0 0 0.403 -1.56 0.403 -4.600142857142857 0 -3.042 -0.403 -4.6038571428571435 -0.403 -4.6038571428571435 -0.1782857142857143 -1.365 -1.4597142857142857 -2.4458571428571427 -3.0921428571428575 -2.6C17.988285714285716 1.4745714285714286 15.386428571428572 1.2962857142857143 13.001857142857144 1.2962857142857143c-2.3864285714285716 0 -4.988285714285714 0.17642857142857143 -7.361714285714286 0.40114285714285713 -1.6324285714285716 0.15414285714285716 -2.9138571428571427 1.235 -3.0921428571428575 2.6 0 0 -0.40114285714285713 1.56 -0.40114285714285713 4.602 0 3.042 0.40114285714285713 4.6038571428571435 0.40114285714285713 4.6038571428571435 0.1782857142857143 1.365 1.4597142857142857 2.4458571428571427 3.0921428571428575 2.6" stroke-width="2"></path><path id="Vector_2" stroke="#1f1d0d" stroke-linecap="round" stroke-linejoin="round" d="M8.061857142857143 20.190857142857144v0c0 -1.2387142857142859 0.12442857142857144 -2.5387142857142857 0.9081428571428571 -3.500714285714286A5.187 5.187 0 0 1 13 14.76057142857143c1.6212857142857144 0 3.069857142857143 0.7521428571428572 4.03 1.9314285714285715 0.7837142857142857 0.9601428571428572 0.9081428571428571 2.2601428571428572 0.9081428571428571 3.4988571428571427v0" stroke-width="2"></path><path id="Vector_3" fill="#ffffff" d="M13 11.696285714285715c1.8998571428571427 0 2.967714285714286 -1.0678571428571428 2.967714285714286 -2.967714285714286 0 -1.8980000000000001 -1.0678571428571428 -2.9658571428571427 -2.967714285714286 -2.9658571428571427 -1.8980000000000001 0 -2.967714285714286 1.0678571428571428 -2.967714285714286 2.9658571428571427 0 1.8998571428571427 1.0678571428571428 2.967714285714286 2.967714285714286 2.967714285714286Z" stroke-width="2"></path><path id="Vector_4" stroke="#1f1d0d" stroke-linecap="round" stroke-linejoin="round" d="M13 11.696285714285715c1.8998571428571427 0 2.967714285714286 -1.0678571428571428 2.967714285714286 -2.967714285714286 0 -1.8980000000000001 -1.0678571428571428 -2.9658571428571427 -2.967714285714286 -2.9658571428571427 -1.8980000000000001 0 -2.967714285714286 1.0678571428571428 -2.967714285714286 2.9658571428571427 0 1.8998571428571427 1.0678571428571428 2.967714285714286 2.967714285714286 2.967714285714286Z" stroke-width="2"></path></g></svg>