<svg xmlns="http://www.w3.org/2000/svg" fill="none" viewBox="-1 -1 28 28" height="28" width="28" id="One-On-One-Meeting-Call--Streamline-Flex.svg"><desc>One On One Meeting Call Streamline Icon: https://streamlinehq.com</desc><g id="one-on-one-meeting-call--one-on-one-meeting-call-work"><path id="Intersect" fill="#ffffff" d="M11.074142857142858 21.53914285714286a6.117428571428571 6.117428571428571 0 0 1 2.0651428571428574 3.263c-4.561142857142857 1.2610000000000001 -7.1574285714285715 1.3167142857142857 -11.872714285714286 0a6.117428571428571 6.117428571428571 0 0 1 9.805714285714286 -3.263Z" stroke-width="2"></path><path id="Intersect_2" fill="#ffd32b" d="M7.341285714285714 12.026857142857143c0.1337142857142857 1.7698571428571428 1.5971428571428572 3.121857142857143 3.3632857142857144 3.279714285714286 1.651 0.14485714285714285 3.2815714285714286 0.2822857142857143 5.263142857142857 0.2822857142857143 1.9834285714285715 0 3.614 -0.13742857142857143 5.263142857142857 -0.2822857142857143 1.768 -0.15785714285714286 3.2314285714285713 -1.5098571428571428 3.365142857142857 -3.279714285714286 0.18571428571428572 -2.4402857142857144 0.18571428571428572 -4.828571428571429 0 -7.2669999999999995 -0.1337142857142857 -1.7698571428571428 -1.5971428571428572 -3.121857142857143 -3.365142857142857 -3.279714285714286C19.581714285714288 1.3371428571428572 17.95114285714286 1.197857142857143 15.967714285714287 1.197857142857143c-1.9815714285714285 0 -3.6121428571428575 0.13742857142857143 -5.263142857142857 0.2822857142857143 -1.766142857142857 0.15785714285714286 -3.2314285714285713 1.5098571428571428 -3.3632857142857144 3.279714285714286 -0.18571428571428572 2.4402857142857144 -0.18571428571428572 4.828571428571429 0 7.2669999999999995Z" stroke-width="2"></path><path id="Intersect_3" fill="#ffffff" d="M18.564 10.236571428571429c0.6871428571428572 0.5608571428571428 1.171857142857143 1.3297142857142856 1.3854285714285715 2.1877142857142857 -3.1107142857142858 0.884 -4.852714285714286 0.884 -7.963428571428572 0a4.102428571428572 4.102428571428572 0 0 1 6.578 -2.1877142857142857Z" stroke-width="2"></path><path id="Intersect_4" stroke="#1f1d0d" stroke-linecap="round" stroke-linejoin="round" d="M13.139285714285714 24.802142857142858a6.117428571428571 6.117428571428571 0 0 0 -11.872714285714286 0" stroke-width="2"></path><path id="Intersect_5" stroke="#1f1d0d" stroke-linecap="round" stroke-linejoin="round" d="M19.949428571428573 12.424285714285716a4.104285714285714 4.104285714285714 0 0 0 -7.963428571428572 0" stroke-width="2"></path><path id="Intersect_6" stroke="#1f1d0d" stroke-linecap="round" stroke-linejoin="round" d="M7.215 9.516c-0.037142857142857144 -1.547 0.0018571428571428573 -3.055 0.11885714285714287 -4.680000000000001 0.12814285714285717 -1.782857142857143 1.5804285714285715 -3.1757142857142857 3.3614285714285717 -3.337285714285714 1.7085714285714286 -0.15600000000000003 3.4728571428571433 -0.3008571428571429 5.274285714285714 -0.3008571428571429 1.8014285714285714 0 3.562 0.14485714285714285 5.274285714285714 0.3008571428571429 1.7772857142857144 0.16342857142857142 3.2314285714285713 1.5525714285714285 3.3595714285714284 3.3354285714285714a48.072142857142865 48.072142857142865 0 0 1 0 7.118428571428572c-0.12814285714285717 1.782857142857143 -1.5804285714285715 3.172 -3.3614285714285717 3.3354285714285714 -1.7085714285714286 0.15600000000000003 -3.4728571428571433 0.3008571428571429 -5.274285714285714 0.3008571428571429 -0.5162857142857143 0 -1.030714285714286 -0.011142857142857144 -1.5414285714285714 -0.03157142857142858" stroke-width="2"></path><path id="Vector" fill="#ffffff" d="M7.202000000000001 20.159285714285716c2.033571428571429 0 3.1757142857142857 -1.1440000000000001 3.1757142857142857 -3.1757142857142857 0 -2.033571428571429 -1.1421428571428571 -3.1757142857142857 -3.1757142857142857 -3.1757142857142857 -2.031714285714286 0 -3.1757142857142857 1.1421428571428571 -3.1757142857142857 3.1757142857142857 0 2.031714285714286 1.1440000000000001 3.1757142857142857 3.1757142857142857 3.1757142857142857Z" stroke-width="2"></path><path id="Vector_2" stroke="#1f1d0d" stroke-linecap="round" stroke-linejoin="round" d="M7.202000000000001 20.159285714285716c2.033571428571429 0 3.1757142857142857 -1.1440000000000001 3.1757142857142857 -3.1757142857142857 0 -2.033571428571429 -1.1421428571428571 -3.1757142857142857 -3.1757142857142857 -3.1757142857142857 -2.031714285714286 0 -3.1757142857142857 1.1421428571428571 -3.1757142857142857 3.1757142857142857 0 2.031714285714286 1.1440000000000001 3.1757142857142857 3.1757142857142857 3.1757142857142857Z" stroke-width="2"></path><path id="Vector_3" fill="#ffffff" d="M15.967714285714287 9.309857142857142c1.56 0 2.4384285714285716 -0.8765714285714286 2.4384285714285716 -2.4384285714285716 0 -1.56 -0.8784285714285714 -2.4384285714285716 -2.4384285714285716 -2.4384285714285716S13.529285714285715 5.311428571428571 13.529285714285715 6.871428571428572s0.8784285714285714 2.4384285714285716 2.4384285714285716 2.4384285714285716Z" stroke-width="2"></path><path id="Vector_4" stroke="#1f1d0d" stroke-linecap="round" stroke-linejoin="round" d="M15.967714285714287 9.309857142857142c1.56 0 2.4384285714285716 -0.8765714285714286 2.4384285714285716 -2.4384285714285716 0 -1.56 -0.8784285714285714 -2.4384285714285716 -2.4384285714285716 -2.4384285714285716S13.529285714285715 5.311428571428571 13.529285714285715 6.871428571428572s0.8784285714285714 2.4384285714285716 2.4384285714285716 2.4384285714285716Z" stroke-width="2"></path></g></svg>