<svg xmlns="http://www.w3.org/2000/svg" fill="none" viewBox="-1 -1 28 28" height="28" width="28" id="Toilet-Man-Woman-1--Streamline-Flex.svg"><desc>Toilet Man Woman 1 Streamline Icon: https://streamlinehq.com</desc><g id="toilet-man-woman-1--travel-wayfinder-toilet-man-women"><path id="Union" fill="#ffffff" d="M18.918714285714284 8.830714285714286c-2.2155714285714287 0 -3.500714285714286 1.3928571428571428 -4.414428571428571 3.302 -0.6518571428571428 1.3668571428571428 -1.0697142857142856 3.125571428571429 -1.2554285714285716 4.7542857142857144 -0.11514285714285714 1.0195714285714288 0.7205714285714286 1.8515714285714286 1.7457142857142858 1.8515714285714286h0.6537142857142857l0.5757142857142857 3.576857142857143a2.7244285714285716 2.7244285714285716 0 0 0 5.382000000000001 0l0.5757142857142857 -3.576857142857143h0.6592857142857143c1.0270000000000001 0 1.8627142857142855 -0.8320000000000001 1.7475714285714286 -1.8515714285714286 -0.18571428571428572 -1.6287142857142858 -0.6017142857142858 -3.3874285714285715 -1.2554285714285716 -4.7542857142857144 -0.9137142857142857 -1.9091428571428573 -2.198857142857143 -3.302 -4.414428571428571 -3.302Z" stroke-width="2"></path><path id="Rectangle 35" fill="#ffffff" d="M1.3854285714285715 14.286999999999999a4.5407142857142855 4.5407142857142855 0 1 1 8.895714285714286 0l-1.6584285714285716 8.047a2.848857142857143 2.848857142857143 0 0 1 -5.578857142857143 0L1.3854285714285715 14.286999999999999Z" stroke-width="2"></path><path id="Rectangle 36" stroke="#1f1d0d" stroke-linecap="round" stroke-linejoin="round" d="M1.3872857142857142 14.286999999999999a4.5407142857142855 4.5407142857142855 0 0 1 4.447857142857143 -5.456285714285714v0a4.5407142857142855 4.5407142857142855 0 0 1 4.446000000000001 5.456285714285714l-1.6565714285714286 8.047a2.848857142857143 2.848857142857143 0 0 1 -2.7894285714285716 2.273142857142857v0a2.848857142857143 2.848857142857143 0 0 1 -2.7912857142857144 -2.273142857142857L1.3872857142857142 14.286999999999999Z" stroke-width="2"></path><path id="Union_2" stroke="#1f1d0d" stroke-linecap="round" stroke-linejoin="round" d="M18.918714285714284 8.830714285714286c-2.2155714285714287 0 -3.500714285714286 1.3928571428571428 -4.414428571428571 3.302 -0.6518571428571428 1.3668571428571428 -1.0697142857142856 3.125571428571429 -1.2554285714285716 4.7542857142857144 -0.11514285714285714 1.0195714285714288 0.7205714285714286 1.8515714285714286 1.7457142857142858 1.8515714285714286h0.6537142857142857l0.5757142857142857 3.576857142857143a2.7244285714285716 2.7244285714285716 0 0 0 5.382000000000001 0l0.5757142857142857 -3.576857142857143h0.6592857142857143c1.0270000000000001 0 1.8627142857142855 -0.8320000000000001 1.7475714285714286 -1.8515714285714286 -0.18571428571428572 -1.6287142857142858 -0.6017142857142858 -3.3874285714285715 -1.2554285714285716 -4.7542857142857144 -0.9137142857142857 -1.9091428571428573 -2.198857142857143 -3.302 -4.414428571428571 -3.302Z" stroke-width="2"></path><path id="Vector" fill="#ffffff" d="M5.835142857142857 8.830714285714286c2.3771428571428572 0 3.7179999999999995 -1.339 3.7179999999999995 -3.7179999999999995C9.553142857142857 2.73 8.214142857142857 1.3928571428571428 5.835142857142857 1.3928571428571428 3.4542857142857146 1.3928571428571428 2.117142857142857 2.73 2.117142857142857 5.112714285714286c0 2.3771428571428572 1.3371428571428572 3.7179999999999995 3.7179999999999995 3.7179999999999995Z" stroke-width="2"></path><path id="Vector_2" fill="#ffffff" d="M18.918714285714284 8.830714285714286c2.379 0 3.7179999999999995 -1.339 3.7179999999999995 -3.7179999999999995 0 -2.380857142857143 -1.3371428571428572 -3.7179999999999995 -3.7179999999999995 -3.7179999999999995 -2.379 0 -3.7179999999999995 1.3371428571428572 -3.7179999999999995 3.7179999999999995 0 2.3771428571428572 1.3371428571428572 3.7179999999999995 3.7179999999999995 3.7179999999999995Z" stroke-width="2"></path><path id="Vector_3" stroke="#1f1d0d" stroke-linecap="round" stroke-linejoin="round" d="M5.835142857142857 8.830714285714286c2.3771428571428572 0 3.7179999999999995 -1.339 3.7179999999999995 -3.7179999999999995C9.553142857142857 2.73 8.214142857142857 1.3928571428571428 5.835142857142857 1.3928571428571428 3.4542857142857146 1.3928571428571428 2.117142857142857 2.73 2.117142857142857 5.112714285714286c0 2.3771428571428572 1.3371428571428572 3.7179999999999995 3.7179999999999995 3.7179999999999995Z" stroke-width="2"></path><path id="Vector_4" stroke="#1f1d0d" stroke-linecap="round" stroke-linejoin="round" d="M18.918714285714284 8.830714285714286c2.379 0 3.7179999999999995 -1.339 3.7179999999999995 -3.7179999999999995 0 -2.380857142857143 -1.3371428571428572 -3.7179999999999995 -3.7179999999999995 -3.7179999999999995 -2.379 0 -3.7179999999999995 1.3371428571428572 -3.7179999999999995 3.7179999999999995 0 2.3771428571428572 1.3371428571428572 3.7179999999999995 3.7179999999999995 3.7179999999999995Z" stroke-width="2"></path></g></svg>